<svg xmlns="http://www.w3.org/2000/svg" width="24" height="24" viewBox="0 0 24 24">
  <path id="Icon_material-account-balance-wallet" data-name="Icon material-account-balance-wallet" d="M27.237,24.5v1.333A2.607,2.607,0,0,1,24.711,28.5H7.026A2.6,2.6,0,0,1,4.5,25.833V7.167A2.6,2.6,0,0,1,7.026,4.5H24.711a2.607,2.607,0,0,1,2.526,2.667V8.5H15.868a2.6,2.6,0,0,0-2.526,2.667V21.833A2.6,2.6,0,0,0,15.868,24.5ZM15.868,21.833H28.5V11.167H15.868ZM20.921,18.5a2,2,0,1,1,1.895-2A1.947,1.947,0,0,1,20.921,18.5Z" transform="translate(-4.5 -4.5)" fill="#fafafa"/>
</svg>
