<svg xmlns="http://www.w3.org/2000/svg" width="18.347" height="24.463" viewBox="0 0 18.347 24.463">
  <path id="Icon_awesome-clipboard-list" data-name="Icon awesome-clipboard-list" d="M16.054,3.058H12.232a3.058,3.058,0,1,0-6.116,0H2.293A2.294,2.294,0,0,0,0,5.351V22.17a2.294,2.294,0,0,0,2.293,2.293H16.054a2.294,2.294,0,0,0,2.293-2.293V5.351A2.294,2.294,0,0,0,16.054,3.058ZM4.587,20.259a1.147,1.147,0,1,1,1.147-1.147A1.144,1.144,0,0,1,4.587,20.259Zm0-4.587a1.147,1.147,0,1,1,1.147-1.147A1.144,1.144,0,0,1,4.587,15.672Zm0-4.587A1.147,1.147,0,1,1,5.734,9.938,1.144,1.144,0,0,1,4.587,11.085ZM9.174,1.911A1.147,1.147,0,1,1,8.027,3.058,1.144,1.144,0,0,1,9.174,1.911ZM15.29,19.494a.383.383,0,0,1-.382.382H8.027a.383.383,0,0,1-.382-.382V18.73a.383.383,0,0,1,.382-.382h6.88a.383.383,0,0,1,.382.382Zm0-4.587a.383.383,0,0,1-.382.382H8.027a.383.383,0,0,1-.382-.382v-.764a.383.383,0,0,1,.382-.382h6.88a.383.383,0,0,1,.382.382Zm0-4.587a.383.383,0,0,1-.382.382H8.027a.383.383,0,0,1-.382-.382V9.556a.383.383,0,0,1,.382-.382h6.88a.383.383,0,0,1,.382.382Z" fill="#fafafa"/>
</svg>
